<?xml version="1.0" encoding="UTF-8"?>
<svg id="complete" xmlns="http://www.w3.org/2000/svg" viewBox="0 0 180 90">
  <defs>
    <style>
      .cls-1 {
        fill: #b20c3b;
      }

      .cls-2 {
        fill: #fff;
      }

      .cls-3 {
        fill: #dc8c22;
      }

      .cls-4 {
        fill: #f2efe9;
      }
    </style>
  </defs>
  <path class="cls-1" d="M0,0h90v90H0V0Z"/>
  <path class="cls-4" d="M56.8,68l-3.6-10.2h-16.8l-3.6,10.2h-9.8l17.5-45.8h8.9l17.4,45.8h-10ZM47.1,40.8c-.9-2.7-1.8-5.4-2.3-7.1-.5,1.7-1.4,4.4-2.3,7.1l-2.9,8.3h10.4l-2.9-8.3Z"/>
  <path class="cls-3" d="M21.1,46.4c-.2.6-.9,1-1.6.8l-12.7-4.3c-.6-.2-1-.9-.8-1.6l1.1-3.2c.2-.6.9-1,1.6-.8l12.8,4.3c.6.2,1,.9.8,1.6,0,0-1.2,3.2-1.2,3.2ZM20.4,56.4c.2.6-.1,1.3-.8,1.6l-9.1,3.2c-.6.2-1.3-.2-1.5-.8l-1-3.2c-.2-.6.1-1.3.8-1.6l9.1-3.2c.6-.2,1.3.1,1.6.8,0,0,.9,3.2.9,3.2ZM17.9,27.2c-.5.4-.6,1.2-.2,1.7l5.8,7.7c.4.5,1.2.6,1.7.2l2.6-2c.5-.4.6-1.2.2-1.7l-5.8-7.7c-.4-.5-1.2-.6-1.7-.2l-2.6,2ZM68.6,46.4c.2.6.9,1,1.6.8l12.8-4.3c.6-.2,1-.9.8-1.6l-1.1-3.2c-.2-.6-.9-1-1.6-.8l-12.8,4.3c-.6.2-1,.9-.8,1.6l1.1,3.2ZM69.3,56.4c-.2.6.1,1.3.8,1.6l9.1,3.2c.6.2,1.3-.1,1.6-.8l1.1-3.2c.2-.6-.1-1.3-.8-1.6l-9.1-3.2c-.6-.2-1.3.1-1.6.8,0,0-1.1,3.2-1.1,3.2ZM71.8,27.2c.5.4.6,1.2.2,1.7l-5.8,7.7c-.4.5-1.2.6-1.7.2l-2.6-2c-.5-.4-.6-1.2-.2-1.7l5.8-7.7c.4-.5,1.2-.6,1.7-.2,0,0,2.6,2,2.6,2Z"/>
  <path class="cls-2" d="M122,17.5v-2.5c0-.1.1-.1.4-.2h.1v-.3h-1v.1s-.4.9-.7,1.5c-.1.2-.2.5-.3.7-.1.1-.1.3-.2.4-.1-.3-.3-.7-.5-1.1-.3-.6-.7-1.5-.7-1.5v-.1h-1.1v.3h.1c.2,0,.3.1.4.1s.1.1.2.3v2.1c0,.2,0,.4-.4.4h-.1v.4h.6c.3,0,.6,0,.7.1h.1v-.4h-.1q-.4-.1-.5-.3v-1.5c.1.1.1.2.2.4l.1.3c0,.1.1.2.1.3.2.3.4.7.6,1.3v.1h.3v-.1c.1-.3.3-.9.6-1.3l.1-.2c.1-.2.1-.3.2-.5.1-.1.1-.2.2-.4v1.8c0,.1-.1.2-.4.2h-.1v.3h.1s.4-.1.6-.1c.3,0,.6,0,.9.1h.1v-.4h-.1c-.4-.1-.5-.2-.5-.3h0ZM128.2,14.5h-.9v.4h.1c.3,0,.4.1.4.2.1.1.1.4.1.6v.9c0,1-.6,1.1-1,1.1s-1-.1-1-1v-1.4c0-.3.1-.3.5-.4h.1v-.3h-1.9v.3h.1c.4.1.5.1.5.5v1.5c0,.9.6,1.4,1.6,1.4.7,0,1.5-.4,1.5-1.5v-1c0-.2,0-.5.1-.6,0-.1.1-.1.4-.1h.1v-.4h-.1c-.3-.2-.5-.2-.6-.2h0ZM132.5,16c-.5-.2-.6-.4-.6-.6,0-.3.2-.5.6-.5.3,0,.5.2.5.5v.1h.3v-.8h-.1c-.3-.1-.5-.2-.8-.2-.7,0-1.2.4-1.2,1,0,.5.3.8,1,1.1.5.2.6.3.6.6s-.3.6-.6.6c-.4,0-.6-.2-.7-.6v-.1h-.3v.9h.1c.3.1.7.2,1,.2.8,0,1.3-.5,1.3-1.1-.1-.7-.6-.9-1.1-1.1ZM138.5,17.1c-.1.3-.1.4-.2.4s-.4.1-.7.1c-.2,0-.3,0-.4-.1,0,0-.1-.2-.1-.6v-.5h.3c.2,0,.4,0,.4.1.1,0,.1.2.2.3v.2l.3-.1v-.1c-.1-.2-.1-.4-.1-.6v-.5h-.2v.1c-.1.2-.1.3-.2.3s-.2.1-.4.1h-.3v-1.1h.4c.3,0,.4,0,.5.1s.2.2.2.4v.1h.3v-1h-2.7v.3h.2c.2,0,.4.1.4.2v2.6c0,.1-.2.1-.4.1h-.1v.3h2.8v-.1q0-.2.1-.4v-.5s-.3-.1-.3-.1ZM144.7,14.5h-.8v.4h.1c.3,0,.4.1.4.2.1.1.1.4.1.6v.9c0,1-.6,1.1-1,1.1s-1-.1-1-1v-1.4c0-.3.1-.3.5-.4h.1v-.3h-1.9v.3h.1c.4.1.5.1.5.5v1.5c0,.9.6,1.4,1.6,1.4.7,0,1.5-.4,1.5-1.5v-1c0-.2,0-.5.1-.6,0-.1.1-.1.4-.1h.1v-.4h-.1c-.4-.2-.5-.2-.7-.2h0ZM152,17.7c-.3-.1-.4-.1-.4-.2v-2.5c0-.1.1-.1.4-.2h.1v-.3h-1.1v.1s-.4.9-.7,1.5c-.1.2-.2.5-.3.7-.1.1-.1.2-.2.3-.1-.3-.3-.7-.5-1.1l-.7-1.4v-.1h-1.1v.3h.1c.2,0,.3.1.4.1s.1.1.2.3v2.2c0,.2,0,.4-.4.4h-.1v.4h.6c.3,0,.6,0,.7.1h.1v-.4h-.1q-.4-.1-.5-.3v-1.5c.1.1.1.2.2.4l.1.3c0,.1.1.2.1.3.2.3.4.7.6,1.3v.1h.3v-.1c.1-.3.4-.9.6-1.3l.1-.2c.1-.2.1-.3.2-.5.1-.1.1-.2.2-.4v1.8c0,.1-.1.2-.4.2h-.1v.3h.1s.4-.1.6-.1c.3,0,.6,0,.9.1h.1v-.4l-.1-.2h0ZM99.8,26.5c.1.3.1.8.1,2.1,0,1.5,0,2.1-.1,2.4s-.2.5-1,.6c0,0-.1,0-.1.1v.4c.5-.1,1-.1,1.7-.1.6,0,1.3,0,1.8.1v-.4s0-.1-.1-.1c-.7-.1-.9-.2-1-.4-.1-.2-.2-1-.2-3.2v-2h.3c.9,0,1.4.6,1.4,1.4s-.5,1.4-1.3,1.5c0,0-.1,0-.1.1v.3s0,.1.1.1c1,0,1.6-.1,2-.5.4-.3.7-.8.7-1.4,0-1.2-1-1.9-2.5-1.9h-3.1s-.1,0-.1.1v.3s0,.1.1.1c1.1-.1,1.3,0,1.4.4ZM113.1,32.2h1.1c.1-.2.1-.3.2-.6.2-.5.4-.9.5-1.1v-.1h-.6c-.3.5-.6.8-.9,1s-.6.2-.9.2c-.6,0-.8-.1-1-.2-.3-.2-.4-.4-.4-1.4v-1.8c0-1.4,0-1.7.2-1.9.1-.1.4-.3.8-.3,0,0,.1,0,.1-.1v-.4h-1.7c-.8,0-1.2,0-1.5-.1h-.2v.4s0,.1.1.1c.5.1.7.2.9.3.1.2.2.4.2.8v2.7c0,.9,0,1.4-.1,1.6-.1.1-.2.2-.8.3,0,0-.1,0-.1.1v.3s0,.1.1.1h.1c.2,0,.7-.1,1.2-.1h1.4c.3.1.8.2,1.3.2ZM122.8,31.7s-.1,0,0,0l-.1.4h3.3v-.4s0-.1-.1-.1c-.4,0-.6-.1-.7-.3-.2-.2-.2-.4-.8-1.7-.2-.4-.4-.9-.6-1.6-.6-1.5-1.1-3-1.1-3h-.2c-.2.4-.5.9-.9.9v.1l.1.2c-.1.3-1.1,2.9-1.6,4.4-.3.8-.5,1-1.2,1.1,0,0-.1,0-.1.1v.4h2.7v-.4s0-.1-.1-.1c-.7,0-1-.2-1-.5,0-.2.4-1.4.5-1.6h2c.1.2.2.4.2.6.2.5.3.8.3,1,.4.2.2.4-.6.5h0ZM123,28.9h-1.4l.7-1.9s.7,1.9.7,1.9ZM132.5,31.3c-.1-.2-.1-.3-.1-1.8v-2.3c.3.4,1.4,1.6,2.2,2.4l.2.3c1.2,1.3,2,2.2,2.2,2.6l.3-.2v-.1s.1-3.7.1-3.9c0-1.2,0-1.6.1-1.8.1-.2.4-.4,1-.4,0,0,.1,0,.1-.1v-.5h-2.9v.5c.6.1.8.2.9.4.1.2.1.4.1,1.8v1.8c-.2-.3-.6-.7-1-1.1l-.3-.4c-2-2.1-2.5-2.8-2.6-3h-2.6s-.1,0-.1.1v.4s0,.1.1.1c.6,0,.9.2,1.3.5v3.3c0,1.2,0,1.4-.1,1.6s-.3.3-1,.4c0,0-.1,0-.1.1v.4c.5,0,1-.1,1.6-.1.7,0,1.1,0,1.5.1v-.4s0-.1-.1-.1c-.3-.3-.7-.4-.8-.6h0ZM144,26.4h1.8v3.5c0,.5,0,1.2-.2,1.4-.1.2-.3.2-.6.3h-.2v.5c.4,0,1.1-.1,1.6-.1s1.1,0,1.7.1v-.4s0-.1-.1-.1c-.6-.1-.8-.2-.9-.6-.1-.3-.1-.6-.1-1.6v-3.1h1.1c.6,0,.7,0,.8.1s.1.2.1.7c0,0,0,.1.1.1h.4s.1,0,.1-.1c.1-.6.2-1.1.3-1.6v-.1h-.5c-.1.2-.2.2-.5.2-.5,0-2,.1-3.1.1h-2.1c-.2,0-.3,0-.3-.3,0,0,0-.1-.1-.1h-.4s-.1,0-.1.1c0,.4-.1,1-.2,1.6v.1h.5v-.1c.4-.5.5-.6.9-.6ZM155.6,26.3c.1.2.2.4.2.8,0,.5.1,1.7.1,2.7s0,1.5-.2,1.7c-.1.1-.3.2-.8.2v.5s.7-.1,1.4-.1,1.4,0,1.9.1v-.4s0-.1-.1-.1c-.5-.1-.7-.2-.8-.4-.1-.2-.2-.4-.2-1.8v-1.7c0-1.2.1-1.4.2-1.5q.2-.2.9-.3v-.4s0-.1-.1-.1h-1.6c-.7,0-1.3,0-1.8-.1v.4s0,.1.1.1c.4.1.7.2.8.4h0ZM171.3,25.5h-2.9v.4s0,.1.1.1c.6.1.8.2.9.4.1.2.1.4.1,1.8v1.8c-.2-.3-.6-.7-1-1.1l-.4-.4c-1.6-1.7-2.4-2.7-2.6-3h-2.6s-.1,0-.1.1v.4s0,.1.1.1c.6,0,.9.2,1.3.5v3.3c0,1.2,0,1.4-.1,1.6s-.3.3-1,.4c0,0-.1,0-.1.1v.4c.5,0,1-.1,1.6-.1.7,0,1.1,0,1.5.1v-.4s0-.1-.1-.1c-.7-.1-1-.2-1.1-.4-.1-.2-.1-.3-.1-1.8v-2.3c.3.4,1.4,1.6,2.2,2.4l.2.2c1.2,1.3,2,2.2,2.3,2.6l.3-.2v-.1s.1-3.7.1-3.9c0-1.2,0-1.6.1-1.8.1-.2.4-.4,1-.4,0,0,.1,0,.1-.1l.2-.6q.1,0,0,0ZM107.7,37.6c-.7.1-1.4.1-1.7.1h-.4s-.6,1.2-1.2,2.5c-.3.6-.6,1.2-.8,1.7-.1.3-.3.6-.3.7-.1-.3-.3-.7-.6-1.2-.2-.3-.3-.6-.5-1-.3-.6-.5-1-.7-1.3-.4-.7-.5-1-.6-1.3h-.6c-.5,0-1.6-.1-1.6-.1v.4s0,.1.1.1c.4.1.7.1.8.2.1.1.2.2.4.6v2.8c0,1.4,0,1.6-.1,1.8s-.2.3-.9.4v.5h.1c.4-.1.6-.1,1.1-.1.6,0,1.4.1,1.6.1v-.4s0-.1-.1-.1c-.7-.1-.8-.2-.9-.4s-.1-.4-.1-.5v-2.7c.2.3.5,1,1,1.9.6,1.2,1,2,1.2,2.3h.6c.2-.6.4-1,1.1-2.5l.5-1c.2-.5.4-.8.5-1v1.8c0,1.1,0,1.5-.1,1.7s-.2.4-.8.4c0,0-.1,0-.1.1v.4c.5-.1,1-.1,1.5-.1.4,0,1.7.1,1.7.1v-.4s0-.1-.1-.1c-.6-.1-.8-.2-.9-.5s-.1-.6-.1-1.7v-1.7c0-1,0-1.3.1-1.4.1-.2.3-.3.9-.4,0,0,.1,0,.1-.1l-.1-.6q.1.1,0,0c.1,0,0,0,0,0ZM115.2,37.7c-2,0-3.6,1.5-3.6,3.4s1.5,3.3,3.6,3.3,3.6-1.5,3.6-3.5c0-1.8-1.5-3.2-3.6-3.2ZM115.3,44c-1.2,0-2.2-1.3-2.2-3.1,0-1.6.8-2.7,2.1-2.7,1.2,0,2.1,1.3,2.1,3,0,1.6-.9,2.8-2,2.8ZM128.8,43.5c-.5-.5-.8-1-1.4-2l-.3-.5c.8-.2,1.3-.7,1.3-1.4,0-1.2-1-1.9-2.7-1.9h-1c-1.1,0-1.8-.1-1.9-.1v.4s0,.1.1.1c.4.1.6.1.8.2.3.3.3.7.3,3.4,0,1.2,0,1.6-.1,1.8s-.3.2-.9.3c0,0-.1,0-.1.1v.4c.5-.1,1.1-.1,1.7-.1s1.3,0,1.6.1h.2s.1,0,.1-.1v-.4s0-.1-.1-.1c-.9-.1-1-.3-1.1-.7,0-.3-.1-.8-.1-1.6v-.2h.2c.4,0,.5.2.7.6,0,.1.1.1.1.2s.1.1.1.2c.3.5.9,1.5,1.4,1.8.3.2.8.3,1.5.3h.7s.1,0,.1-.1v-.2s0-.1-.1-.1c-.4.1-.7-.1-1.1-.4h0ZM127,39.6c0,.8-.5,1.3-1.4,1.3h-.4v-2.7h.3c.9,0,1.5.6,1.5,1.4ZM139.5,42.7h-.4q0,.1-.1.2c-.1.3-.2.5-.5.7-.3.1-.6.2-1.1.2-.6,0-.9-.1-1.1-.3-.2-.2-.2-.3-.2-1.3v-1h.6c.8,0,1,.1,1.1.3s.2.2.2.6l.3-.2v-.1c-.1-.4-.1-.6-.1-1.1v-.8h-.5c-.1.3-.2.5-.3.5-.1.1-.5.1-1.1.1h-.4v-2.3h1.1c1.1,0,1.3.2,1.5,1h.4v-1.5h-2.5c-1.7,0-2.1,0-2.5-.1h-.2v.4s0,.1.1.1c.4.1.6.1.8.3s.2.4.2.8v3.6c0,.5-.1.7-.1.8-.1.2-.3.2-.7.3v.5h.1c.2,0,.7-.1,1.3-.1h3.9s.1,0,.1-.1c0-.2,0-.3.1-.7v-.8q.1.1,0,0c.1,0,0,0,0,0h0ZM150.7,37.7h-.5c-.1.2-.2.2-.5.2-.6,0-2.1.1-3.1.1h-2.1c-.2,0-.3,0-.3-.3,0,0,0-.1-.1-.1h-.4s-.1,0-.1.1c0,.4-.1,1-.2,1.6v.1h.5v-.1c.2-.5.3-.6.7-.7h1.8v3.5c0,.5,0,1.2-.2,1.4-.1.2-.3.2-.6.3h-.2v.5c.4,0,1.1-.1,1.6-.1s1.1,0,1.7.1v-.4s0-.1-.1-.1c-.6-.1-.8-.2-.9-.6-.1-.3-.1-.6-.1-1.6v-3.1h1.1c.6,0,.7,0,.8.1s.1.2.1.7c0,0,0,.1.1.1h.4s.1,0,.1-.1c.3-.5.4-1,.5-1.6ZM162.2,37.7c-.4,0-.8.1-1.5.1h-1.3v.4s0,.1.1.1c.8.1.9.2,1,.6.1.3.1,1.5.1,2.4,0,1.1-.1,1.5-.4,1.9-.3.4-.9.7-1.6.7-.6,0-1-.2-1.4-.5-.4-.4-.5-.7-.5-2.5v-1.5c0-.9.2-1,1.2-1.1,0,0,.1,0,.1-.1v-.4c-.6.1-1,.1-1.6.1-.8,0-1.6,0-2-.1h-.1v.5c.6.1.8.2.9.5.1.3.1.6.1,2.9v.2c0,.8,0,1.3.6,1.9.5.6,1.3.8,2.4.8,1,0,1.7-.3,2.2-.9.4-.4.6-.9.6-1.6,0-.4.1-2.7.1-2.8,0-.8.1-.9,1.1-1.1v-.1l-.1-.4h0ZM169.3,40.8c-.2-.1-.4-.2-.7-.3l-.2-.1c-.5-.2-1-.4-1-1.1,0-.6.5-1.1,1.2-1.1s1.1.4,1.3,1.2h.5v-1.5c-.6-.3-1.2-.4-1.7-.4-1.4,0-2.4.8-2.4,1.9,0,.7.4,1.2,1.1,1.6.2.1.5.2.7.3.5.2.9.4,1.2.6.2.2.2.4.2.6,0,.6-.6,1.1-1.3,1.1-.4,0-.8-.2-1.1-.4-.3-.3-.4-.5-.5-1.1,0,0,0-.1-.1-.1h-.5s-.1,0-.1.1v1.6c.7.4,1.4.5,2.1.5,1.5,0,2.6-.9,2.6-2,0-.6-.5-1-1.3-1.4Z"/>
  <g>
    <path class="cls-2" d="M117.7,66.9l-.5-.4-.1.1.1.1v.1l-.5.6c0,.1-.1.1-.1.1h-.1l-.1.1.9.7.3-.3-.1-.1q-.1.1-.2.1t-.2-.1c-.1,0-.1-.1-.1-.1l.1-.1.4-.6.1-.1h.1v-.1q.1,0,0,0h0ZM118.9,68.8v-.2l.1-1.1h-.1l-.8.7c-.1.1-.2.1-.2.1v.1l.4.2v-.1h-.1l.1-.1.3.2v.2h-.1v.1l.6.3-.2-.4q.1.1,0,0c0,.1,0,0,0,0ZM118.5,68.3l-.2-.1.2-.2s0,.3,0,.3ZM120.3,68.1l-.5-.2v.1q.1,0,.1.1v.1l-.2.7q0,.1-.1.1h-.1v.1l.6.2c.1,0,.2.1.3.1h.1c.1,0,.2-.1.2-.2v-.3c0-.1-.1-.1-.2-.2h.2c.1,0,.1-.1.1-.2v-.3c-.2,0-.3,0-.5-.1ZM120.2,69.1c0,.1-.1.1-.1.2h-.2v-.1l.1-.3q.1,0,.1.1v.1c.1-.2.1-.1.1,0ZM120.3,68.5c0,.1-.1.1-.1.1h-.1l.1-.4h.1v.1c.1.1,0,.1,0,.2ZM122,68.5h-.4c-.1,0-.2.1-.3.2-.1.1-.1.2-.2.3v.3c0,.1.1.2.2.3.1.1.2.1.4.2h.2c.1,0,.3,0,.4-.1s.2-.3.3-.4c0-.2,0-.4-.1-.5s-.3-.2-.5-.3ZM122.2,69.2c0,.2-.1.3-.1.4q-.1.1-.2.1c-.1,0-.2-.1-.2-.2v-.4c0-.2.1-.3.1-.4s.1-.1.2-.1h.1c.1,0,.2.1.2.2-.1.1-.1.3-.1.4ZM124.3,69.9s-.1-.1-.1-.2c-.1-.1-.1-.2-.2-.3.2-.1.2-.2.2-.3v-.2c0-.1-.1-.1-.1-.1-.1,0-.1-.1-.2-.1h-.9v.1h.1v.9h-.1v.1h.7v-.1h-.1v-.4h.1s.1.1.1.2c.1.2.2.3.2.3h.4v-.1q0,.2-.1.2.1,0,0,0ZM123.8,69.2q0,.1,0,0c-.1.1-.2.1-.3.1v-.4c.1,0,.2,0,.2.1v.2s.1,0,.1,0ZM126,69.5h-.1q0,.1-.1.2l-.1.1h-.3v-.4h.2v.1h.1v-.4h-.1v.1h-.2v-.4h.3l.1.1s0,.1.1.1h.1v-.3l-1.1.1v.1h.1v.9h-.1v.1l1.1.1v-.5h0ZM133.3,68.3h-.1v.2s0,.1-.1.1c0,0-.1,0-.2.1h-.1v-.4h.2v.1h.1l-.1-.4h-.1v.1h-.2l-.1-.4h.4l.1.1h.1l-.1-.3-1.1.1v.1h.1v.1l.1.7v.1h-.1v.1l1.1-.2.1-.2h0ZM133.8,67.4q-.1,0,0,0v.4h.1v-.1s0-.1.1-.1h.2v1h-.1v.1h.7v-.1h-.1v-1h.3s.1.1.1.2h.1v-.4h-1.4ZM137.6,67.8q-.1,0,0,0-.1,0,0,0c-.2,0-.3-.1-.4-.1-.2,0-.4,0-.5.1s-.2.3-.3.4c0,.2,0,.3.1.5s.2.3.4.3.3,0,.4-.1v.1h.1l.1-.5h-.1c0,.1-.1.2-.2.3-.1,0-.2.1-.2,0q-.1,0-.2-.1s-.1-.1-.1-.2v-.3c0-.2.1-.3.1-.4q.1-.1.2-.1c.1,0,.2.1.2.1.1.1.1.2.1.3h.1l.1-.5q.2.2.1.2h0ZM138.9,68h-.4c-.1,0-.2.1-.3.2s-.1.2-.2.3v.3c0,.1.1.2.2.3.1.1.2.1.4.2h.2c.1,0,.3,0,.4-.1.2-.1.3-.2.3-.4s0-.4-.1-.5-.2-.2-.5-.3h0ZM139.1,68.8c0,.2-.1.3-.2.4q-.1.1-.2.1c-.1,0-.2-.1-.2-.2v-.4c0-.2.1-.3.1-.4,0,0,.1-.1.2-.1h.1c.1,0,.2.1.2.2v.4h0ZM141,68.5v.1s.1,0,.1.1v.1l-.1.4-.5-.8-.4-.1v.1c.1,0,.1.1.1.2l-.1.6v.1h-.2v.1l.5.1v-.1s-.1,0-.1-.1v-.2l.1-.5.6,1h.1l.2-1v-.1h.2v-.1l-.5.1h0ZM142.6,69.3s-.1-.1-.2-.1c-.1-.1-.2-.1-.2-.1l-.1-.1v-.2h.1q.1,0,.1.1c0,.1.1.1.1.2h.1v-.4h-.1s-.1,0-.1-.1l-.1-.1c-.1,0-.2,0-.3.1s-.1.2-.2.3v.2c0,.1.1.1.1.2,0,0,.1.1.3.2l.1.1v.2h-.1q-.1,0-.2-.1-.1-.1-.1-.3h-.1v.4h.1v-.1l.1.1c.1,0,.1.1.2.1h.1c.1,0,.2,0,.3-.1s.1-.2.2-.3v-.2c0,.1,0,0-.1,0h0ZM143.2,68.7v.4h.1v-.1s0-.1.1-.1h.2v1h-.1v.1h.7v-.1h-.1v-1h.3s.1.1.1.2h.1v-.4h-1.4ZM146.1,69.8q-.1,0,0,0c-.1,0-.1-.1-.2-.2l-.5-.9h-.1l-.3,1c0,.1-.1.2-.2.2v.1h.4v-.1h-.1v-.1h.4v.1h-.1v.1h.6l.1-.2h0ZM145.2,69.5l.1-.3.1.3h-.2ZM147.5,68.6s.1,0,0,0l.1-.1v-.1l-.4.1v.1c.1,0,.2,0,.2.1l.1.4-.8-.6-.4.1v.1s.1,0,.1.1l.1.6v.2h-.1v.1l.5-.1v-.1h-.1s-.1,0-.1-.1l-.1-.5.9.7h.1l-.2-1h.1,0ZM149.3,69h-.1l-.1-.1-.3-.8h.3l.1.1h.1l-.1-.3-1.2.4.1.3h.1v-.2s.1,0,.1-.1h.1l.3.8v.1l-.1.1v.1l.7-.2v-.2h0ZM150.7,68.4s-.1,0,0,0h-.2l-.1-.1-.3-.7v-.1l.1-.1v-.1l-.6.3v.1h.1l.1.1.3.7v.1l-.1.1v.1l.6-.3q.1,0,.1-.1h0ZM152.1,67.4h-.1s-.1,0-.2-.1l-.9-.5-.1.1.3,1v.3l.1.1.3-.2-.1-.1h-.1v-.1l.3-.2.1.1-.1.1.1.1.5-.4q0-.1-.1-.2ZM151.2,67.7l-.1-.3.3.2s-.2.1-.2.1Z"/>
    <path class="cls-2" d="M154.2,65.4c-.4-2-2-4.5-2.1-4.6,0,0-1.4-1.7-4-.5-.1,0-2,.9-2.3,2.4v.2l1.1,2.6c0,.1.1.1.2.2.1,0,.2,0,.2-.1,0,0,.9-1,2.3-1.2.4-.1.8-.1,1.2,0-1.9,1.9-6.3,3.2-11.3,2.1l-1.2-2.6.2-.1c.1,0,.1-.1.1-.1v-.2l-2.1-4.7c.2-.4.4-.9.4-1.4,0-1.5-1.2-2.8-2.8-2.8-1.5,0-2.8,1.2-2.8,2.8,0,.5.1,1,.4,1.4l-2.1,4.7v.2c0,.1.1.1.1.1l.2.1-1.2,2.7c-4.9,1-9.1-.3-10.9-2.2h1.2c1.4.3,2.3,1.2,2.3,1.2q.1.1.2.1c.1,0,.2-.1.2-.2l1.1-2.6v-.2c-.3-1.5-2.2-2.4-2.3-2.4-2.6-1.2-4,.5-4,.5-.1.1-1.7,2.6-2.1,4.6-.5,2.3,1.1,4.3,4.1,5.5,1.8.7,3.5.9,5.1.9.9,0,1.8-.1,2.7-.2l-2.1,4.8c0,.1-1,2-1,4.7,0,.1.1.2.2.2h.1q.1,0,.2-.1c1.8-1.8,2.6-3.9,2.6-3.9l2.8-6.3,1.2-.3c.3-.1.6-.1.8-.2,1.1-.2,2.1-.4,3-.5.9,0,1.9.2,3,.5.3.1.6.1.8.2.3.1.5.1.8.2l2.8,6.4c0,.1.8,2.2,2.6,3.9,0,0,.1.1.2.1h.1c.1,0,.2-.1.2-.2.1-2.7-1-4.6-1-4.7l-2.2-4.9c1,.2,2,.3,3.1.3,1.7,0,3.4-.3,5.1-.9,3.6-1.2,5.1-3.2,4.6-5.5h0ZM149.7,63.8c-1.1.2-1.9.8-2.3,1.1l-.9-2.2c.3-1.2,2-2,2-2,2.1-.9,3.1.1,3.3.3.5,1.1.1,2-.3,2.7-.7,0-1.3,0-1.8.1ZM139,66.2c-.2-.1-.4-.1-.6-.2-.3-.1-.6-.2-.9-.2l-.6-1.4,1.1-.4,1,2.2ZM138.1,63.3l-1.9.9v-.1l-1.6-3.7.1-.3c.6-.1,1.2-.4,1.6-.8l1.8,4h0ZM136.8,65.7c-.4-.1-.9-.1-1.3-.2h-1.1c-.9,0-1.7.1-2.6.3l.5-1.1h.2c.1,0,.2-.1.2-.2l1.6-3.6,1.6,3.6c0,.1.1.2.2.2h.2l.5,1h0ZM134.3,55c1.2,0,2.2,1,2.2,2.2,0,.3,0,.5-.1.7,0,.1-.1.2-.1.3-.1.1-.1.2-.2.3-.3.4-.6.6-1.1.8-.1,0-.2.1-.3.1h-.8c-.1,0-.2,0-.3-.1-.4-.1-.8-.4-1.1-.8-.1-.1-.1-.2-.2-.3-.1-.1-.1-.2-.1-.3-.1-.2-.1-.5-.1-.7,0-1.2,1-2.2,2.2-2.2h0ZM130.5,63.3l1.8-4.1c.4.4,1,.7,1.6.8h.3l-.1.3-1.6,3.7v.1l-2-.8ZM117.3,61.1c.2-.2,1.2-1.2,3.3-.3,0,0,1.7.8,2,2l-.9,2.2c-.4-.4-1.2-.9-2.3-1.1-.6-.1-1.1-.1-1.7,0-.5-.8-.9-1.7-.4-2.8ZM119,70.4c-2.8-1.1-4.1-2.9-3.7-4.9.2-1,.8-2.2,1.2-3.1,0,.2,0,.4.1.6.1.3.2.7.5,1,0,.1.1.1.2.2s.1.2.2.2l.1.1c1.8,2.1,6.2,3.5,11.2,2.6l-1.8,4c-2.5.4-5.2.4-8-.7h0ZM129.1,70.6l-.1.3v.1l-.1.2v.1l-2.6,6s-.6,1.7-2,3.3c.1-2.2.9-3.7.9-3.8l2.3-5.2.1-.3.1-.3,1.8-4,.1-.3.1-.3,1-2.4,1.1.5-.6,1.5-.1.3v.1l-.1.3s-1.9,3.9-1.9,3.9ZM143.6,76.8s.8,1.5.9,3.7c-1.4-1.6-2-3.2-2-3.3l-2.7-6,1.5.3,2.3,5.3ZM150,70.4c-2.9,1.1-5.7,1-8.3.6-.1,0-.2,0-.3-.1-.1,0-.2,0-.3-.1h-.2c-.1,0-.2,0-.3-.1-.3-.1-.6-.1-.9-.2-.1,0-.2,0-.3-.1-.1,0-.2-.1-.3-.1s-.3-.1-.4-.1c-.3-.1-.6-.1-.9-.2-1.1-.3-2.1-.5-3-.5h-.1c-.9,0-1.9.2-3.1.5-.2,0-.3.1-.5.1-.4.1-.8.2-1.1.2l1.8-4.1c1-.3,1.9-.4,3-.4h.1c.8,0,1.6.1,2.5.3.1,0,.2,0,.3.1.1,0,.2.1.3.1s.3.1.4.1c.3.1.7.2,1,.3.1,0,.2,0,.3.1.1,0,.2,0,.3.1,5.2,1,9.8-.4,11.6-2.5l.1-.1c.1-.1.1-.2.2-.2l.2-.2c.2-.3.4-.7.5-1,0-.2.1-.4.1-.6.5.9,1,2.1,1.2,3.1.2,2.1-1.2,3.9-3.9,5h0Z"/>
  </g>
</svg>