<svg xmlns="http://www.w3.org/2000/svg" width="39" height="40" fill="none"><path fill="#F3EFE9" d="M13.978 6.25c-4.328 0-7.884 3.643-7.884 8.086v11.328c0 4.438 3.551 8.086 7.884 8.086h11.044c4.328 0 7.884-3.642 7.884-8.086V14.337c0-4.44-3.551-8.087-7.884-8.087H13.978Zm0 2.5h11.044a5.32 5.32 0 0 1 2.086.423 5.43 5.43 0 0 1 1.768 1.211 5.59 5.59 0 0 1 1.18 1.813c.273.679.414 1.405.413 2.14v11.327c0 .734-.14 1.46-.413 2.139a5.59 5.59 0 0 1-1.18 1.813 5.43 5.43 0 0 1-1.768 1.21 5.32 5.32 0 0 1-2.086.424H13.98a5.319 5.319 0 0 1-2.086-.423 5.432 5.432 0 0 1-1.768-1.21 5.59 5.59 0 0 1-1.181-1.814 5.704 5.704 0 0 1-.413-2.14V14.339a5.703 5.703 0 0 1 .413-2.14 5.591 5.591 0 0 1 1.18-1.814 5.433 5.433 0 0 1 1.768-1.21 5.321 5.321 0 0 1 2.086-.424Zm12.72 2.735a1.072 1.072 0 0 0-.783.33 1.129 1.129 0 0 0-.321.803c0 .63.49 1.132 1.104 1.132a1.072 1.072 0 0 0 .784-.329 1.13 1.13 0 0 0 .321-.803 1.15 1.15 0 0 0-.321-.804 1.097 1.097 0 0 0-.784-.329ZM19.5 12.5c-4.022 0-7.313 3.375-7.313 7.5s3.291 7.5 7.313 7.5 7.313-3.375 7.313-7.5-3.291-7.5-7.313-7.5Zm0 2.5c2.71 0 4.875 2.221 4.875 5s-2.166 5-4.875 5c-2.71 0-4.875-2.221-4.875-5s2.166-5 4.875-5Z"/></svg>