<svg xmlns="http://www.w3.org/2000/svg" width="40" height="40" fill="none"><path fill="#F3EFE9" d="M9.375 6.25A3.15 3.15 0 0 0 6.25 9.375v21.25c0 1.709 1.416 3.125 3.125 3.125h21.25c1.709 0 3.125-1.416 3.125-3.125V9.375c0-1.709-1.416-3.125-3.125-3.125H9.375Zm0 2.5h21.25c.356 0 .625.269.625.625v21.25a.613.613 0 0 1-.625.625H9.375a.613.613 0 0 1-.625-.625V9.375c0-.356.269-.625.625-.625Zm3.672 2.149a2.15 2.15 0 1 0-.103 4.298 2.15 2.15 0 0 0 .103-4.298ZM24.335 16.6c-1.791 0-2.983.982-3.475 1.914h-.079v-1.64h-3.516V28.75h3.672v-5.86c0-1.547.308-3.046 2.227-3.046 1.89 0 1.915 1.747 1.915 3.125v5.781h3.671v-6.524c0-3.192-.68-5.625-4.415-5.625Zm-13.085.274V28.75h3.711V16.875H11.25Z"/></svg>