<svg xmlns="http://www.w3.org/2000/svg" width="40" height="40" fill="none"><path fill="#F3EFE9" d="M20 7.5c-4.707 0-8.867.487-11.406.86-2.1.308-3.794 1.889-4.18 3.984-.326 1.782-.664 4.39-.664 7.656s.338 5.875.664 7.656c.386 2.095 2.08 3.681 4.18 3.985 2.55.37 6.724.859 11.406.859 4.683 0 8.858-.487 11.406-.86 2.1-.303 3.794-1.889 4.18-3.984.327-1.787.664-4.4.664-7.656 0-3.256-.333-5.869-.664-7.656-.386-2.095-2.08-3.676-4.18-3.985-2.538-.37-6.7-.859-11.406-.859Zm0 2.5c4.541 0 8.599.464 11.055.82a2.462 2.462 0 0 1 2.07 1.992c.303 1.65.625 4.097.625 7.188 0 3.086-.322 5.538-.625 7.188a2.45 2.45 0 0 1-2.07 1.992c-2.468.356-6.544.82-11.055.82-4.512 0-8.594-.464-11.055-.82a2.45 2.45 0 0 1-2.07-1.992c-.303-1.65-.625-4.092-.625-7.188 0-3.1.322-5.537.625-7.188a2.45 2.45 0 0 1 2.07-1.992C11.396 10.464 15.459 10 20 10Zm-3.75 2.851V27.15l1.875-1.055 8.75-5L28.75 20l-1.875-1.094-8.75-5-1.875-1.055Zm2.5 4.298L23.711 20l-4.961 2.851V17.15Z"/></svg>